<svg width="64" height="29" viewBox="0 0 64 29" fill="none" xmlns="http://www.w3.org/2000/svg">
<g clip-path="url(#clip0_856_1392)">
<path d="M8.43476 12.9919L6.5242 12.0626H21.0071C21.6005 12.0626 22.1367 11.6984 22.3698 11.137L23.5903 8.1961L9.52409 8.19446C7.15698 8.19446 5.01709 9.64254 4.08065 11.8786L0.23988 21.1584C-0.591978 23.1689 0.841875 25.4006 2.96637 25.4006H15.4712C16.0648 25.4006 16.601 25.0363 16.8341 24.475L18.0773 21.48H4.91569L8.43476 12.9925V12.9919Z" fill="#231F20"/>
<path d="M48.776 8.19507C46.3967 8.19507 44.2483 9.65844 43.3199 11.9119L42.6998 13.4174L42.257 14.4903C41.4274 16.5003 42.8617 18.7292 44.9846 18.7292H46.074H54.9658L53.824 21.4806H40.3417C39.7492 21.4806 39.2141 21.8432 38.9805 22.4029L37.7277 25.4012H52.9523C55.3263 25.4012 57.4709 23.9444 58.4026 21.6986L59.5185 19.0093C60.353 16.9988 58.9186 14.765 56.7935 14.765H46.8219L47.5539 12.9936L45.6906 12.0637H61.421C62.0156 12.0637 62.5523 11.6984 62.7848 11.136L64 8.19561H48.7765L48.776 8.19507Z" fill="#231F20"/>
<path d="M44.354 4.27395C44.3407 4.27395 44.3296 4.26248 44.3296 4.24883C44.3307 4.15382 44.3333 3.81746 44.3338 3.75412C44.3338 3.66676 44.2744 3.59632 44.2001 3.59632C44.1571 3.59632 44.1188 3.62035 44.0939 3.65748C44.0811 3.67605 43.9288 3.90483 43.8349 4.04517C43.8295 4.0528 43.8216 4.05717 43.8125 4.05717H36.39C36.3609 4.05717 36.337 4.03315 36.3365 4.00311L36.3216 3.79672C36.3211 3.76177 36.3518 3.73447 36.3852 3.74101L36.7648 3.77815C36.7978 3.78088 36.8274 3.75904 36.8354 3.72628L37.112 2.57251C37.1179 2.54575 37.1035 2.51845 37.0786 2.50917L36.8217 2.41034C36.8068 2.40433 36.7956 2.39177 36.7919 2.37593C36.7452 2.17499 36.3652 0.831742 34.5331 0.531423C33.6417 0.385632 33.0579 0.777139 32.7463 1.08947C32.6077 1.22816 32.4936 1.39034 32.4043 1.56725L32.295 1.81515C32.2855 1.83426 32.2429 2.06687 32.2429 2.08817L32.3009 3.23321C32.3009 3.27252 32.3189 3.30911 32.3487 3.33313L32.7505 3.51168L32.5286 3.89009C32.5212 3.91794 32.4967 3.93704 32.4686 3.93704C32.4686 3.93704 31.9961 3.9496 31.7631 3.95943C31.3262 3.97746 30.3531 4.52622 29.636 6.10426C28.9314 7.65392 28.8158 7.91218 28.8158 7.91218C28.8009 7.94167 28.7706 7.96023 28.7382 7.95859L28.0838 7.96078C28.0434 7.96078 28.0004 7.99409 27.9834 8.03176L26.9657 10.9984C26.9488 11.0361 26.9588 11.0928 26.9853 11.1245L27.6956 11.5815C27.7153 11.5985 27.7238 11.6252 27.7179 11.6504L27.3469 12.7779C27.3421 12.803 27.3331 12.8276 27.3203 12.85L26.8282 13.2961C26.8154 13.3076 26.8038 13.3218 26.7969 13.3376C26.7932 13.3463 26.79 13.3556 26.7873 13.3649L26.1099 15.1509C26.101 15.1826 26.0728 15.204 26.041 15.204L25.6608 15.2061C25.5652 15.2061 25.4857 15.282 25.4772 15.3797L25.2499 18.0494C25.2458 18.0963 25.2399 18.1433 25.2319 18.1902L25.0525 19.2495C25.0455 19.2741 25.0324 19.2959 25.0148 19.314L24.3821 19.8114C24.0921 20.0965 23.7036 20.6167 23.5135 20.9799L21.4061 25.5573C21.3551 25.6545 21.3142 25.8222 21.3168 25.9331L21.4665 26.2077C21.4687 26.306 21.4304 26.7395 21.3864 26.8268L20.6804 28.097C20.6644 28.1281 20.6633 28.1647 20.6772 28.1968L20.7122 28.2793L20.8178 28.496L22.9609 28.4994C23.0937 28.5119 23.2406 28.3367 23.2449 28.1489L23.3612 26.6363L23.3309 26.4086L27.417 21.4713C27.5237 21.3375 27.6686 21.1016 27.7412 20.9455L29.6884 16.5248C29.7114 16.4763 29.7521 16.4391 29.8021 16.4221L29.9252 16.3812C30 16.3561 30.0819 16.3807 30.1323 16.4429C30.3027 16.6537 30.7035 17.3542 30.8988 17.6463C31.0602 17.8888 31.8613 19.0818 32.2111 19.4751C32.3078 19.5831 32.6055 19.706 32.7389 19.7896C32.7824 19.8169 32.7967 19.8747 32.7717 19.9201L31.6049 22.0299L31.0894 24.5215C31.0714 24.5794 31.0576 24.6394 31.049 24.6995L30.5825 26.4298C30.5857 26.6483 30.4226 26.763 30.4095 27.0207L30.2396 28.2853C30.2374 28.3241 30.2676 28.3569 30.3053 28.3569L33.1884 28.3733H33.1906C33.1943 28.3733 33.3938 28.3705 33.5117 28.3655C33.5341 28.3645 33.5722 28.3607 33.5972 28.3575C33.9815 28.3071 34.2444 28.2531 34.4232 28.1909C34.4312 28.1882 34.4391 28.1854 34.4471 28.1821C34.5714 28.1369 34.652 28.0865 34.704 28.0309C34.8022 27.9254 34.9158 27.796 34.9329 27.6296C34.9334 27.623 34.934 27.617 34.9345 27.6104C34.9345 27.6065 34.9345 27.6022 34.9349 27.5983C34.9349 27.5892 34.9349 27.5804 34.9349 27.5711C34.9349 27.5701 34.9349 27.5684 34.9349 27.5672C34.9349 27.559 34.9339 27.5508 34.9329 27.5432C34.9291 27.51 34.9217 27.4848 34.9132 27.4646C34.9132 27.4646 34.9132 27.4646 34.9132 27.4641C34.9132 27.4636 34.9127 27.463 34.9121 27.4624C34.9095 27.4559 34.9063 27.4504 34.903 27.4449C34.901 27.4417 34.8993 27.4384 34.8967 27.4352C34.8802 27.4117 34.8643 27.4029 34.8623 27.4018C34.8543 27.397 34.8458 27.3926 34.8367 27.3893L33.4979 26.9737C33.412 26.9464 33.3371 26.8918 33.284 26.8176L32.9245 26.2705C32.9071 26.2323 32.9151 26.1863 32.9442 26.1569L33.6445 25.4464C33.6684 25.423 33.6869 25.3941 33.6991 25.3624L35.856 20.1264C35.9569 19.794 35.9235 19.4199 35.856 19.0245C35.8061 18.7324 35.0794 17.4771 34.8893 17.1303C34.722 16.8246 33.6795 14.9479 33.4321 14.5034C33.404 14.4532 33.3673 14.4084 33.3212 14.3756C33.2882 14.3521 33.2558 14.3221 33.2293 14.2904C33.2028 14.2588 33.1837 14.2216 33.173 14.1812L33.0907 12.8778C33.0833 12.8494 33.1024 12.821 33.1311 12.8189L33.5064 12.7866C33.542 12.7834 33.5739 12.7621 33.5904 12.7299L34.8899 10.2165C34.9079 10.1821 34.9069 10.14 34.8873 10.1067L34.6212 9.76762C34.6032 9.73649 34.6027 9.69718 34.6201 9.6655L35.0183 9.22267C35.0348 9.19209 35.072 9.18171 35.1016 9.19864L36.1602 9.81293C36.2244 9.85006 36.2972 9.87191 36.3709 9.87191C36.6646 9.86972 37.1481 9.69117 37.3997 9.53281C37.4661 9.49077 37.5207 9.43125 37.5569 9.36028L38.0761 8.11149C38.083 8.09565 38.1058 8.09784 38.109 8.11477L38.2538 8.80933C38.2635 8.85301 38.3007 8.87757 38.3431 8.86774L39.872 8.51774C39.9124 8.50845 39.9372 8.4675 39.9287 8.42601L39.5683 6.85833C39.5635 6.83704 39.5672 6.81465 39.5789 6.79608L39.7276 6.55856C39.7462 6.52908 39.7599 6.49686 39.7684 6.46355L39.9485 5.61775C39.9531 5.5959 39.9718 5.58006 39.9935 5.58006L44.2229 5.58552C44.2823 5.58552 44.3285 5.53857 44.3285 5.47687V4.73753C44.3285 4.72389 44.3396 4.71242 44.3529 4.71242H45.9837C46.0124 4.71242 46.0363 4.68839 46.0363 4.65835V4.32528C46.0363 4.2958 46.013 4.27122 45.9837 4.27122H44.3524L44.354 4.27395Z" fill="#231F20"/>
</g>
<defs>
<clipPath id="clip0_856_1392">
<rect width="64" height="28" fill="white" transform="translate(0 0.5)"/>
</clipPath>
</defs>
</svg>
