<svg width="28" height="27" viewBox="0 0 28 27" fill="none" xmlns="http://www.w3.org/2000/svg">
<path d="M11.5386 26.6825L11.15 26.3472L10.6272 26.3044C9.9702 26.2473 9.66641 26.1902 9.29903 26.0404L9.00937 25.9262L8.69851 26.0546C8.43005 26.1617 7.78714 26.2616 7.29259 26.2687C7.26433 26.2687 7.22194 26.2045 7.19368 26.126C7.16542 26.0475 7.1089 25.969 7.06651 25.9547C7.02412 25.9405 6.7274 26.0047 6.40241 26.1046L5.81602 26.283L5.60407 26.1759C5.3356 26.0475 5.22256 26.0475 4.77747 26.1831C4.43836 26.2901 4.39597 26.2901 4.12043 26.233C3.71773 26.1474 3.37155 26.1545 2.60854 26.2615C1.77488 26.3828 1.75368 26.3829 1.51347 26.2116C1.35098 26.0974 1.25914 26.0689 1.05425 26.0689C0.828175 26.0689 0.799915 26.0618 0.77872 25.9476C0.76459 25.8762 0.77872 25.7478 0.828175 25.6336C0.955344 25.3197 1.0048 24.5562 1.01893 22.7296L1.03306 21.0242L1.2662 21.0385L1.49934 21.0528L1.53467 20.0681C1.55586 19.5258 1.56999 18.7481 1.57706 18.3342V17.585L1.45695 17.4923C1.11077 17.2425 1.13197 17.2782 0.990668 16.4505C0.920019 16.0224 0.842305 15.3945 0.828175 15.0591C0.799915 14.4598 0.799915 14.4383 0.912954 14.317L1.02599 14.1886L1.30859 14.4312C1.46402 14.5668 1.59825 14.6524 1.60532 14.6239C1.64771 14.4954 1.52054 12.9685 1.45695 12.7758C1.41456 12.6617 1.3863 12.5047 1.3863 12.4262C1.3863 12.3477 1.30859 12.1408 1.21675 11.9553L1.04719 11.627L1.10371 11.0419C1.18142 10.2713 1.08251 9.70764 0.76459 9.02265L0.623292 8.71583L0.715136 7.95235L0.80698 7.18887L0.708071 6.7893L0.609162 6.38972L0.722201 5.94733L0.83524 5.50494L0.701006 5.07682L0.566772 4.6487L0.729266 4.19918C0.884694 3.75679 0.891759 3.73538 0.884694 3.01472C0.884694 2.20843 0.79285 1.68042 0.630357 1.46636C0.489058 1.28084 0.510253 1.15954 0.722201 0.95975C0.828175 0.866991 0.912954 0.74569 0.912954 0.688608C0.912954 0.61012 0.948279 0.595849 1.16023 0.588714C1.29446 0.588714 1.71129 0.545902 2.08573 0.50309L2.76397 0.424602L3.65415 0.553037C4.2476 0.638661 4.94939 0.664824 5.7595 0.631526L6.98173 0.581578L7.2714 0.752826L7.56106 0.924073L8.74797 0.909802L9.93488 0.895532L10.3305 0.752826C10.5495 0.674337 10.8957 0.531631 11.1006 0.438872C11.3055 0.346113 11.6729 0.217678 11.9201 0.146325L12.3652 0.0250244L12.9445 0.210542L13.5239 0.39606L14.0184 0.224813L14.513 0.0535656L15.0499 0.231948C15.3466 0.331843 15.8906 0.567308 16.2721 0.767096L16.9574 1.12386L17.678 1.10246C18.222 1.08819 18.4057 1.06678 18.434 1.01683C18.4552 0.981156 18.5258 0.774232 18.5824 0.553037L18.6883 0.15346L19.3666 0.174866C19.8752 0.189136 20.3274 0.246219 21.1611 0.39606L22.2773 0.595849L22.567 0.481684C22.7295 0.417466 23.0262 0.338978 23.2381 0.310437C23.5914 0.26049 23.6479 0.267625 24.1283 0.388925C24.5734 0.50309 24.7289 0.517361 25.3435 0.517361C25.7321 0.517361 26.1348 0.50309 26.2407 0.481684C26.4244 0.446008 26.4527 0.460278 26.8271 0.73142C27.0391 0.888397 27.2369 1.04537 27.251 1.07391C27.2722 1.10246 27.3076 1.2737 27.3358 1.44495L27.3853 1.7589L27.1451 2.20843C27.0179 2.45816 26.9049 2.67936 26.9049 2.7079C26.9049 2.73644 26.9543 2.77925 27.0179 2.80779C27.0815 2.83634 27.1874 2.9505 27.2581 3.05039L27.3853 3.24305L27.357 5.83316C27.3429 7.25309 27.3146 8.52318 27.2934 8.65161L27.2652 8.87994L26.8766 8.8514L26.488 8.82286L26.4598 9.03692C26.4456 9.15108 26.4315 9.37228 26.4315 9.51498C26.4315 9.72904 26.3962 9.85034 26.2478 10.1358L26.0641 10.4925L26.163 10.6352C26.2196 10.7137 26.4103 10.9349 26.5869 11.1204L26.9119 11.4629L26.813 11.8268L26.7141 12.1907L26.8342 12.9685C26.9755 13.9032 26.9614 14.1387 26.7353 14.9521C26.6434 15.2732 26.5728 15.58 26.5728 15.6228C26.5728 15.7084 26.6364 15.7298 27.0532 15.7869C27.2369 15.8155 27.2793 15.8369 27.2793 15.9154C27.2793 15.9724 27.3076 17.164 27.3499 18.5697C27.47 23.1862 27.4842 24.1923 27.4277 25.2412C27.3994 25.7835 27.3641 26.2401 27.357 26.2544C27.3499 26.2616 26.9755 26.1117 26.5304 25.9191L25.7179 25.5694L25.3647 25.7264C25.0044 25.8834 24.9691 25.9262 24.9196 26.2259C24.8843 26.4257 24.9125 26.4185 24.0224 26.604L23.4996 26.7111L22.9909 26.5398C22.5175 26.3828 22.4539 26.3686 22.0866 26.39C21.811 26.4114 21.6203 26.39 21.4578 26.3472C21.3024 26.2996 21.0928 26.3377 20.829 26.4613L20.4334 26.6469H18.978C17.4449 26.6469 17.127 26.6683 16.0672 26.8681C15.3396 27.0036 15.0781 27.0036 13.7994 26.8466L13.1282 26.761L12.6549 26.8681C12.3935 26.9251 12.1321 26.9751 12.0685 26.9751C11.9908 26.9751 11.8141 26.8609 11.5598 26.6397L11.5386 26.6825ZM8.69851 22.5012C9.82184 22.0731 10.7544 21.7164 10.7615 21.7092C10.7756 21.695 6.36708 17.3781 5.78069 16.8287C5.6182 16.6788 5.46984 16.5575 5.46277 16.5718C5.44864 16.5861 5.0954 17.5493 4.66443 18.7195C4.19815 20.0039 3.90142 20.8673 3.92968 20.9029C3.95794 20.9457 6.61436 23.2719 6.64262 23.279C6.64262 23.279 7.56812 22.9294 8.69851 22.5012ZM23.8457 20.1395C24.4321 18.7053 24.8984 17.5208 24.8772 17.5065C24.856 17.4851 13.8559 9.97878 6.15514 4.73433L5.54049 4.31334L4.5302 4.77C3.97207 5.01974 3.52698 5.2552 3.53404 5.27661C3.54111 5.30515 7.2714 9.24384 11.8141 14.0388L20.0731 22.751H21.4295L22.786 22.7296L23.8528 20.1252L23.8457 20.1395ZM22.3197 7.84532C22.5105 6.75362 22.673 5.82603 22.673 5.78322C22.673 5.73327 22.3904 5.49781 21.917 5.16245C21.5002 4.86276 21.1328 4.60589 21.0975 4.58449C21.041 4.54881 16.7243 5.72614 16.7313 5.77608C16.7313 5.81176 21.9382 9.85034 21.9594 9.83607C21.9665 9.82894 22.129 8.92989 22.3268 7.84532H22.3197Z" fill="#020202"/>
</svg>
