<svg width="64" height="29" fill="none" xmlns="http://www.w3.org/2000/svg"><g clip-path="url(#a)" fill="#231F20"><path d="m8.435 12.992-1.91-.93h14.482c.593 0 1.13-.364 1.363-.925l1.22-2.94-14.066-.003c-2.367 0-4.507 1.449-5.443 3.685L.24 21.159c-.832 2.01.602 4.242 2.726 4.242h12.505c.594 0 1.13-.365 1.363-.926l1.243-2.995H4.916l3.519-8.488Zm40.341-4.797c-2.38 0-4.528 1.463-5.456 3.717l-.62 1.505-.443 1.073c-.83 2.01.605 4.24 2.728 4.24h9.981l-1.142 2.75H40.342a1.48 1.48 0 0 0-1.361.923L37.727 25.4h15.224c2.374 0 4.519-1.457 5.45-3.702l1.117-2.69c.834-2.01-.6-4.244-2.725-4.244h-9.972l.732-1.771-1.863-.93h15.73c.595 0 1.131-.366 1.364-.928L64 8.196H48.776Zm-4.422-3.921a.025.025 0 0 1-.024-.025l.004-.495c0-.087-.06-.158-.134-.158a.13.13 0 0 0-.106.061l-.26.388a.027.027 0 0 1-.022.012H36.39a.054.054 0 0 1-.053-.054l-.015-.206c0-.035.03-.063.063-.056l.38.037a.067.067 0 0 0 .07-.052l.277-1.153a.055.055 0 0 0-.033-.064l-.257-.099a.05.05 0 0 1-.03-.034c-.047-.201-.427-1.544-2.259-1.845-.891-.145-1.475.246-1.787.558-.138.14-.252.301-.342.478l-.109.248c-.01.02-.052.252-.052.273l.058 1.145c0 .04.018.076.048.1l.402.179-.222.378a.062.062 0 0 1-.06.047s-.473.013-.706.022c-.437.018-1.41.567-2.127 2.145-.705 1.55-.82 1.808-.82 1.808a.083.083 0 0 1-.078.047l-.654.002c-.04 0-.084.033-.1.07l-1.018 2.967a.132.132 0 0 0 .02.127l.71.457a.07.07 0 0 1 .022.068l-.371 1.128a.235.235 0 0 1-.027.072l-.492.446a.125.125 0 0 0-.04.069l-.678 1.786a.072.072 0 0 1-.069.053l-.38.002a.187.187 0 0 0-.184.174l-.227 2.67a1.73 1.73 0 0 1-.018.14l-.18 1.06a.152.152 0 0 1-.037.064l-.633.497c-.29.285-.678.806-.869 1.169l-2.107 4.577a.91.91 0 0 0-.09.376l.15.275c.003.098-.036.532-.08.619l-.706 1.27a.117.117 0 0 0-.003.1l.035.082.106.217 2.143.003c.133.013.28-.162.284-.35l.116-1.513-.03-.227 4.086-4.938a3.13 3.13 0 0 0 .324-.526l1.947-4.42a.196.196 0 0 1 .114-.103l.123-.04a.189.189 0 0 1 .207.06c.17.212.571.912.767 1.204.161.243.962 1.436 1.312 1.83.097.107.395.23.528.314a.098.098 0 0 1 .033.13l-1.167 2.11-.516 2.491a1.152 1.152 0 0 0-.04.178l-.466 1.73c.003.22-.16.334-.173.592l-.17 1.264a.067.067 0 0 0 .065.072l2.883.016h.003c.003 0 .203-.003.32-.008a.878.878 0 0 0 .086-.007c.384-.05.647-.105.826-.167a.645.645 0 0 0 .28-.16c.1-.106.213-.235.23-.401l.002-.02v-.043a.282.282 0 0 0-.022-.103v-.002a.12.12 0 0 0-.01-.017l-.006-.01a.109.109 0 0 0-.035-.033.148.148 0 0 0-.025-.013l-1.34-.415a.42.42 0 0 1-.213-.156l-.36-.548a.103.103 0 0 1 .02-.113l.7-.71a.236.236 0 0 0 .055-.085l2.157-5.236c.1-.332.067-.706 0-1.102-.05-.292-.777-1.547-.967-1.894-.167-.305-1.21-2.182-1.457-2.627a.386.386 0 0 0-.11-.127.504.504 0 0 1-.093-.086.282.282 0 0 1-.056-.109l-.082-1.303a.046.046 0 0 1 .04-.06l.375-.031a.105.105 0 0 0 .084-.057l1.3-2.514a.114.114 0 0 0-.003-.11l-.266-.338a.105.105 0 0 1 0-.103l.397-.442a.06.06 0 0 1 .084-.024l1.058.614a.424.424 0 0 0 .21.059c.295-.002.778-.18 1.03-.34a.442.442 0 0 0 .157-.172l.52-1.249c.006-.015.029-.013.032.004l.145.694c.01.044.047.069.09.059l1.528-.35c.04-.01.065-.05.057-.092l-.36-1.568a.083.083 0 0 1 .01-.062l.149-.237a.332.332 0 0 0 .04-.095l.18-.846a.047.047 0 0 1 .045-.038l4.23.006c.06 0 .105-.047.105-.11v-.738c0-.014.012-.026.025-.026h1.63a.053.053 0 0 0 .053-.054v-.333a.053.053 0 0 0-.052-.054h-1.632l.002.003Z"/></g><defs><clipPath id="a"><path fill="#fff" transform="translate(0 .5)" d="M0 0h64v28H0z"/></clipPath></defs></svg>