<svg width="28" height="27" fill="none" xmlns="http://www.w3.org/2000/svg"><path d="m11.539 26.683-.389-.336-.523-.043c-.657-.057-.96-.114-1.328-.264l-.29-.114-.31.129c-.269.107-.912.207-1.406.214-.029 0-.071-.064-.1-.143-.028-.079-.084-.157-.126-.171-.043-.014-.34.05-.665.15l-.586.178-.212-.107c-.268-.128-.381-.128-.827.007-.339.107-.381.107-.657.05-.402-.086-.748-.079-1.511.029-.834.12-.855.12-1.096-.05a.656.656 0 0 0-.459-.143c-.226 0-.254-.007-.275-.121-.014-.072 0-.2.05-.314.126-.314.176-1.078.19-2.904l.014-1.706.233.014.233.015.036-.985c.02-.542.035-1.32.042-1.734v-.749l-.12-.093c-.346-.25-.325-.214-.466-1.041a14.381 14.381 0 0 1-.163-1.392c-.028-.6-.028-.62.085-.742l.113-.128.283.242c.155.136.29.221.296.193.043-.129-.084-1.655-.148-1.848a1.226 1.226 0 0 1-.07-.35c0-.078-.078-.285-.17-.47l-.17-.329.057-.585c.077-.77-.021-1.334-.34-2.02l-.14-.306.091-.764.092-.763-.099-.4-.099-.4.113-.442.113-.442-.134-.428-.134-.428.162-.45c.156-.442.163-.464.156-1.184 0-.807-.092-1.335-.255-1.549C.49 1.281.51 1.16.722.96.828.867.913.746.913.689c0-.079.035-.093.247-.1.134 0 .551-.043.926-.086l.678-.078.89.128C4.248.639 4.95.665 5.76.632l1.222-.05.29.17.29.172L8.747.91 9.935.896l.396-.143c.219-.079.565-.221.77-.314a7.31 7.31 0 0 1 .82-.293l.444-.121.58.186.579.185.494-.171.495-.171.537.178c.297.1.84.335 1.222.535l.685.357.721-.022c.544-.014.728-.035.756-.085a3.18 3.18 0 0 0 .148-.464l.106-.4.679.022c.508.014.96.071 1.794.221l1.116.2.29-.114a3.42 3.42 0 0 1 .671-.172c.353-.05.41-.042.89.079.445.114.6.128 1.215.128.39 0 .792-.014.898-.035.183-.036.212-.022.586.25.212.156.41.313.424.342.021.028.057.2.085.37l.05.315-.24.45c-.128.25-.241.47-.241.499 0 .028.05.071.113.1.063.028.17.143.24.242l.127.193-.028 2.59c-.014 1.42-.042 2.69-.064 2.819l-.028.228-.388-.029-.389-.028-.028.214a4.814 4.814 0 0 0-.029.478c0 .214-.035.335-.183.62l-.184.357.099.143c.057.079.247.3.424.485l.325.343-.099.364-.099.364.12.777c.142.935.127 1.17-.099 1.984a6.007 6.007 0 0 0-.162.67c0 .086.063.108.48.165.184.028.226.05.226.128 0 .057.029 1.249.07 2.655.121 4.616.135 5.622.079 6.671-.029.543-.064 1-.071 1.013-.007.008-.381-.142-.827-.335l-.812-.35-.353.157c-.36.157-.396.2-.445.5-.036.2-.008.193-.898.378l-.522.107-.51-.171c-.473-.157-.536-.171-.903-.15a1.84 1.84 0 0 1-.63-.043c-.155-.047-.364-.01-.628.114l-.396.186h-1.455c-1.533 0-1.851.021-2.91.221-.728.136-.99.136-2.269-.021l-.67-.086-.474.107a5.38 5.38 0 0 1-.586.107c-.078 0-.255-.114-.51-.335l-.02.043ZM8.699 22.5a206.67 206.67 0 0 0 2.063-.792c.014-.014-4.395-4.33-4.981-4.88-.163-.15-.311-.271-.318-.257-.014.014-.368.977-.799 2.148-.466 1.284-.763 2.147-.734 2.183a161.43 161.43 0 0 0 2.713 2.376l2.056-.778Zm15.147-2.361c.586-1.435 1.052-2.62 1.031-2.634-.021-.02-11.021-7.527-18.722-12.772l-.615-.42-1.01.456c-.558.25-1.003.485-.996.507.007.028 3.737 3.967 8.28 8.762l8.26 8.712h1.355l1.357-.021 1.067-2.605-.007.015ZM22.32 7.845c.19-1.091.353-2.019.353-2.062 0-.05-.283-.285-.756-.62a40.12 40.12 0 0 0-.82-.579c-.056-.035-4.373 1.142-4.366 1.192 0 .036 5.207 4.074 5.228 4.06.008-.007.17-.906.368-1.99h-.007Z" fill="#020202"/></svg>